# xmcd
#
# Track frame offsets: 
#        150
#        26234
#        55842
#        117901
#        150094
#
# Disc length: 2439 seconds
#
# Revision: 0
# Processed by: cddbd v1.5.2PL0 Copyright (c) Steve Scherf et al.
# Submitted via: ExactAudioCopyFreeDBPlugin 1.0
#
DISCID=33098505
DTITLE=Mad God - Tales Of A Sightless City
DYEAR=2017
DGENRE=Doom Metal
TTITLE0=Limerence
TTITLE1=Green Guardian
TTITLE2=The Cursed One And The First Flame
TTITLE3=Nebula Riders
TTITLE4=Entity Of Smoke And Blood
EXTD=
EXTT0=
EXTT1=
EXTT2=
EXTT3=
EXTT4=
PLAYORDER=
